<?xml version="1.0" encoding="utf-8"?>
<!-- Generated by Mocodo 4.3.2 -->
<svg width="570" height="270" viewBox="0 0 570 270" xmlns="http://www.w3.org/2000/svg">
<rect x="0" y="0" width="570" height="270" fill="#ffffbf" stroke="none" stroke-width="0"/>

<!-- Association OPERER -->
<g>
	<line x1="253" y1="43" x2="99" y2="43" stroke="#f46d43" stroke-width="2"/>
	<polygon points="197 43 185 49 189 43 185 37" fill="#f46d43" stroke-width="0"/>
	<line x1="99" y1="135" x2="99" y2="43" stroke="#f46d43" stroke-width="2"/>
	<g>
		<path d="M117 18 a14 14 90 0 1 14 14 V43 h-64 V32 a14 14 90 0 1 14 -14" fill="#fdae61" stroke="#fdae61" stroke-width="0"/>
		<path d="M131 43 v11 a14 14 90 0 1 -14 14 H81 a14 14 90 0 1 -14 -14 V43 H64" fill="#fee08b" stroke="#fee08b" stroke-width="0"/>
		<rect x="67" y="18" width="64" height="50" fill="none" rx="14" stroke="#f46d43" stroke-width="2"/>
		<line x1="67" y1="43" x2="131" y2="43" stroke="#f46d43" stroke-width="1"/>
		<text x="74" y="35.75" fill="#000000" font-family="Verdana" font-size="12">OPÉRER</text>
	</g>
	<text x="170" y="60" fill="#1a9850" font-family="Verdana" font-size="12">1,N</text>
	<text x="104" y="85" fill="#1a9850" font-family="Verdana" font-size="12">1,1</text>
	<line x1="104" y1="87" x2="125" y2="87" stroke="#1a9850" stroke-width="1"/>
</g>

<!-- Association DEPEND_DE -->
<g>
	<line x1="514" y1="43" x2="386" y2="43" stroke="#f46d43" stroke-width="2"/>
	<line x1="386" y1="135" x2="386" y2="43" stroke="#f46d43" stroke-width="2"/>
	<g>
		<path d="M417 18 a14 14 90 0 1 14 14 V43 h-90 V32 a14 14 90 0 1 14 -14" fill="#fdae61" stroke="#fdae61" stroke-width="0"/>
		<path d="M431 43 v11 a14 14 90 0 1 -14 14 H355 a14 14 90 0 1 -14 -14 V43 H90" fill="#fee08b" stroke="#fee08b" stroke-width="0"/>
		<rect x="341" y="18" width="90" height="50" fill="none" rx="14" stroke="#f46d43" stroke-width="2"/>
		<line x1="341" y1="43" x2="431" y2="43" stroke="#f46d43" stroke-width="1"/>
		<text x="349" y="35.75" fill="#000000" font-family="Verdana" font-size="12">DÉPEND_DE</text>
	</g>
	<text x="451" y="60" fill="#1a9850" font-family="Verdana" font-size="12">0,N</text>
	<text x="391" y="102" fill="#1a9850" font-family="Verdana" font-size="12">1,1</text>
</g>

<!-- Association DEPART -->
<g>
	<line x1="99" y1="135" x2="253" y2="135" stroke="#f46d43" stroke-width="2"/>
	<line x1="253" y1="227" x2="253" y2="135" stroke="#f46d43" stroke-width="2"/>
	<g>
		<path d="M271 110 a14 14 90 0 1 14 14 V135 h-64 V124 a14 14 90 0 1 14 -14" fill="#fdae61" stroke="#fdae61" stroke-width="0"/>
		<path d="M285 135 v11 a14 14 90 0 1 -14 14 H235 a14 14 90 0 1 -14 -14 V135 H64" fill="#fee08b" stroke="#fee08b" stroke-width="0"/>
		<rect x="221" y="110" width="64" height="50" fill="none" rx="14" stroke="#f46d43" stroke-width="2"/>
		<line x1="221" y1="135" x2="285" y2="135" stroke="#f46d43" stroke-width="1"/>
		<text x="229" y="127.75" fill="#000000" font-family="Verdana" font-size="12">DÉPART</text>
	</g>
	<text x="194" y="152" fill="#1a9850" font-family="Verdana" font-size="12">1,1</text>
	<text x="258" y="194" fill="#1a9850" font-family="Verdana" font-size="12">0,N</text>
</g>

<!-- Association SITUE_DANS -->
<g>
	<line x1="514" y1="227" x2="514" y2="135" stroke="#f46d43" stroke-width="2"/>
	<line x1="514" y1="43" x2="514" y2="135" stroke="#f46d43" stroke-width="2"/>
	<g>
		<path d="M547 110 a14 14 90 0 1 14 14 V135 h-94 V124 a14 14 90 0 1 14 -14" fill="#fdae61" stroke="#fdae61" stroke-width="0"/>
		<path d="M561 135 v11 a14 14 90 0 1 -14 14 H481 a14 14 90 0 1 -14 -14 V135 H94" fill="#fee08b" stroke="#fee08b" stroke-width="0"/>
		<rect x="467" y="110" width="94" height="50" fill="none" rx="14" stroke="#f46d43" stroke-width="2"/>
		<line x1="467" y1="135" x2="561" y2="135" stroke="#f46d43" stroke-width="1"/>
		<text x="474" y="127.75" fill="#000000" font-family="Verdana" font-size="12">SITUÉ_DANS</text>
	</g>
	<text x="519" y="185" fill="#1a9850" font-family="Verdana" font-size="12">0,N</text>
	<text x="519" y="94" fill="#1a9850" font-family="Verdana" font-size="12">1,1</text>
</g>

<!-- Association ARRIVEE -->
<g>
	<line x1="99" y1="135" x2="99" y2="227" stroke="#f46d43" stroke-width="2"/>
	<line x1="253" y1="227" x2="99" y2="227" stroke="#f46d43" stroke-width="2"/>
	<g>
		<path d="M119 202 a14 14 90 0 1 14 14 V227 h-68 V216 a14 14 90 0 1 14 -14" fill="#fdae61" stroke="#fdae61" stroke-width="0"/>
		<path d="M133 227 v11 a14 14 90 0 1 -14 14 H79 a14 14 90 0 1 -14 -14 V227 H68" fill="#fee08b" stroke="#fee08b" stroke-width="0"/>
		<rect x="65" y="202" width="68" height="50" fill="none" rx="14" stroke="#f46d43" stroke-width="2"/>
		<line x1="65" y1="227" x2="133" y2="227" stroke="#f46d43" stroke-width="1"/>
		<text x="72" y="219.75" fill="#000000" font-family="Verdana" font-size="12">ARRIVÉE</text>
	</g>
	<text x="104" y="194" fill="#1a9850" font-family="Verdana" font-size="12">1,1</text>
	<text x="178" y="244" fill="#1a9850" font-family="Verdana" font-size="12">0,N</text>
</g>

<!-- Association COMPOSER -->
<g>
	<line x1="386" y1="135" x2="386" y2="227" stroke="#f46d43" stroke-width="2"/>
	<polygon points="386 160 392 172 386 168 380 172" fill="#f46d43" stroke-width="0"/>
	<line x1="253" y1="227" x2="386" y2="227" stroke="#f46d43" stroke-width="2"/>
	<g>
		<path d="M414 202 a14 14 90 0 1 14 14 V227 h-84 V216 a14 14 90 0 1 14 -14" fill="#fdae61" stroke="#fdae61" stroke-width="0"/>
		<path d="M428 227 v11 a14 14 90 0 1 -14 14 H358 a14 14 90 0 1 -14 -14 V227 H84" fill="#fee08b" stroke="#fee08b" stroke-width="0"/>
		<rect x="344" y="202" width="84" height="50" fill="none" rx="14" stroke="#f46d43" stroke-width="2"/>
		<line x1="344" y1="227" x2="428" y2="227" stroke="#f46d43" stroke-width="1"/>
		<text x="351" y="219.75" fill="#000000" font-family="Verdana" font-size="12">COMPOSER</text>
	</g>
	<text x="391" y="177" fill="#1a9850" font-family="Verdana" font-size="12">1,N</text>
	<text x="306" y="244" fill="#1a9850" font-family="Verdana" font-size="12">1,1</text>
	<line x1="306" y1="246" x2="327" y2="246" stroke="#1a9850" stroke-width="1"/>
</g>

<!-- Entity COMPAGNIE -->
<g>
	<g>
		<rect x="197" y="18" width="112" height="25" fill="#a6d96a" stroke="none" stroke-width="0" opacity="1"/>
		<rect x="197" y="43" width="112" height="25" fill="#d9ef8b" stroke="none" stroke-width="0" opacity="1"/>
		<rect x="197" y="18" width="112" height="50" fill="none" stroke="#66bd63" stroke-width="2" opacity="1"/>
		<line x1="197" y1="43" x2="309" y2="43" stroke="#66bd63" stroke-width="1"/>
	</g>
	<text x="216" y="35.75" fill="#000000" font-family="Verdana" font-size="12">COMPAGNIE</text>
	<text x="202" y="60.8" fill="#000000" font-family="Verdana" font-size="12">nom_compagnie</text>
	<line x1="202" y1="63" x2="303" y2="63" stroke="#000000" stroke-width="1"/>
</g>

<!-- Entity VILLE -->
<g>
	<g>
		<rect x="478" y="9" width="72" height="25" fill="#a6d96a" stroke="none" stroke-width="0" opacity="1"/>
		<rect x="478" y="34" width="72" height="43" fill="#d9ef8b" stroke="none" stroke-width="0" opacity="1"/>
		<rect x="478" y="9" width="72" height="68" fill="none" stroke="#66bd63" stroke-width="2" opacity="1"/>
		<line x1="478" y1="34" x2="550" y2="34" stroke="#66bd63" stroke-width="1"/>
	</g>
	<text x="497" y="26.75" fill="#000000" font-family="Verdana" font-size="12">VILLE</text>
	<text x="483" y="51.8" fill="#000000" font-family="Verdana" font-size="12">id_ville</text>
	<line x1="483" y1="54" x2="544" y2="54" stroke="#000000" stroke-width="1"/>
	<text x="483" y="68.8" fill="#000000" font-family="Verdana" font-size="12">nom_ville</text>
</g>

<!-- Entity VOL -->
<g>
	<g>
		<rect x="9" y="93" width="180" height="25" fill="#a6d96a" stroke="none" stroke-width="0" opacity="1"/>
		<rect x="9" y="118" width="180" height="59" fill="#d9ef8b" stroke="none" stroke-width="0" opacity="1"/>
		<rect x="9" y="93" width="180" height="84" fill="none" stroke="#66bd63" stroke-width="2" opacity="1"/>
		<line x1="9" y1="118" x2="189" y2="118" stroke="#66bd63" stroke-width="1"/>
	</g>
	<text x="87" y="110.75" fill="#000000" font-family="Verdana" font-size="12">VOL</text>
	<text x="14" y="135.8" fill="#000000" font-family="Verdana" font-size="12">num_vol</text>
	<line x1="14" y1="138" x2="67" y2="138" stroke="#000000" stroke-width="1" stroke-dasharray="4"/>
	<text x="14" y="152.8" fill="#000000" font-family="Verdana" font-size="12">date_heure_depart</text>
	<line x1="14" y1="155" x2="131" y2="155" stroke="#000000" stroke-width="1" stroke-dasharray="4"/>
	<text x="14" y="169.8" fill="#000000" font-family="Verdana" font-size="12">date_heure_arrivee_prevue</text>
</g>

<!-- Entity AEROPORT -->
<g>
	<g>
		<rect x="337" y="110" width="98" height="25" fill="#a6d96a" stroke="none" stroke-width="0" opacity="1"/>
		<rect x="337" y="135" width="98" height="25" fill="#d9ef8b" stroke="none" stroke-width="0" opacity="1"/>
		<rect x="337" y="110" width="98" height="50" fill="none" stroke="#66bd63" stroke-width="2" opacity="1"/>
		<line x1="337" y1="135" x2="435" y2="135" stroke="#66bd63" stroke-width="1"/>
	</g>
	<text x="353" y="127.75" fill="#000000" font-family="Verdana" font-size="12">AEROPORT</text>
	<text x="342" y="152.8" fill="#000000" font-family="Verdana" font-size="12">nom_aeroport</text>
	<line x1="342" y1="155" x2="429" y2="155" stroke="#000000" stroke-width="1"/>
</g>

<!-- Entity TERMINAL -->
<g>
	<g>
		<rect x="205" y="202" width="96" height="25" fill="#a6d96a" stroke="none" stroke-width="0" opacity="1"/>
		<rect x="205" y="227" width="96" height="25" fill="#d9ef8b" stroke="none" stroke-width="0" opacity="1"/>
		<rect x="205" y="202" width="96" height="50" fill="none" stroke="#66bd63" stroke-width="2" opacity="1"/>
		<line x1="205" y1="227" x2="301" y2="227" stroke="#66bd63" stroke-width="1"/>
	</g>
	<text x="222" y="219.75" fill="#000000" font-family="Verdana" font-size="12">TERMINAL</text>
	<text x="210" y="244.8" fill="#000000" font-family="Verdana" font-size="12">nom_terminal</text>
	<line x1="210" y1="247" x2="295" y2="247" stroke="#000000" stroke-width="1" stroke-dasharray="4"/>
</g>

<!-- Entity PAYS -->
<g>
	<g>
		<rect x="477" y="193" width="74" height="25" fill="#a6d96a" stroke="none" stroke-width="0" opacity="1"/>
		<rect x="477" y="218" width="74" height="43" fill="#d9ef8b" stroke="none" stroke-width="0" opacity="1"/>
		<rect x="477" y="193" width="74" height="68" fill="none" stroke="#66bd63" stroke-width="2" opacity="1"/>
		<line x1="477" y1="218" x2="551" y2="218" stroke="#66bd63" stroke-width="1"/>
	</g>
	<text x="498" y="210.75" fill="#000000" font-family="Verdana" font-size="12">PAYS</text>
	<text x="482" y="235.8" fill="#000000" font-family="Verdana" font-size="12">id_pays</text>
	<line x1="482" y1="238" x2="529" y2="238" stroke="#000000" stroke-width="1"/>
	<text x="482" y="252.8" fill="#000000" font-family="Verdana" font-size="12">nom_pays</text>
</g>
</svg>